<?xml version="1.0" standalone="yes"?>
<svg width="125" height="52">
<path style="fill:#ffffff; stroke:none;" d="M0 0L0 52L125 52L125 0L0 0z"/>
<path style="fill:#4878aa; stroke:none;" d="M3 3L3 4L117 4L82 3L3 3z"/>
<path style="fill:#004389; stroke:none;" d="M2 4L2 26L9 26C7.9833 23.6526 5.5591 20.6663 5.91589 18.0039C6.46956 13.8722 15.6346 5.74022 19.9846 6.75077C27.2549 8.43977 27.2993 20.5402 26 26L119 26C119 21.4262 121.266 8.09258 117.397 5.02778C112.012 0.762974 93.7862 4 87 4L2 4z"/>
<path style="fill:#386ca3; stroke:none;" d="M1 5L1 26L2 26L1 5M119 5L119 26L120 26L119 5z"/>
<path style="fill:#0a2879; stroke:none;" d="M11 10L11 11L19.1111 8.1875L27 17C23.66 6.41573 20.492 5.2858 11 10z"/>
<path style="fill:#6e89b6; stroke:none;" d="M17 7L17 8L21 8L17 7z"/>
<path style="fill:#c0d0e3; stroke:none;" d="M11 25L18 19L18 18C13.5707 17.62 11.8646 19.8356 9 23C6.46051 14.8014 15.3315 8.86449 23 11C17.7797 2.98734 -2.90518 17.9868 11 25z"/>
<path style="fill:#4876ab; stroke:none;" d="M16 13L20 11L20 18L21 18L21 9L16 13z"/>
<path style="fill:#9db5d3; stroke:none;" d="M21 10L24 26C30.3148 21.9061 24.8888 14.0023 21 10z"/>
<path style="fill:#3a649e; stroke:none;" d="M38 12L42 13C43.2553 9.66998 39.5607 9.85651 38 12z"/>
<path style="fill:#34609c; stroke:none;" d="M102 10L102 11L106 11L102 10z"/>
<path style="fill:#ffffff; stroke:none;" d="M18 11L16 14L19 18L20 18L20 11L18 11M30 11L31 24L34 24L34 23L33 16L41 24C41 20.1371 43.1995 11.9186 39 11L40 18C36.972 14.1211 35.1215 11.3945 30 11z"/>
<path style="fill:#00176d; stroke:none;" d="M36 11L39 16L36 11z"/>
<path style="fill:#ecf4f9; stroke:none;" d="M58 11L58 13L61 13L61 11L58 11z"/>
<path style="fill:#94a9cb; stroke:none;" d="M61.3333 11.6667L61.6667 12.3333L61.3333 11.6667z"/>
<path style="fill:#6e91bb; stroke:none;" d="M93.3333 11.6667L93.6667 12.3333L93.3333 11.6667z"/>
<path style="fill:#ffffff; stroke:none;" d="M94 11L94 13L96 13L96 11L94 11z"/>
<path style="fill:#b9cee0; stroke:none;" d="M96.3333 11.6667L96.6667 12.3333L96.3333 11.6667z"/>
<path style="fill:#dde5f0; stroke:none;" d="M102 11L102 12L105 12L105 23L106 23L106 11L102 11z"/>
<path style="fill:#315a9a; stroke:none;" d="M106 11L108 23L106 11z"/>
<path style="fill:#022f7c; stroke:none;" d="M9 23L10 23L18 17L16 12C9.54337 13.4132 7.07483 16.4089 9 23z"/>
<path style="fill:#4a64a0; stroke:none;" d="M39 12L39 18L40 18L39 12z"/>
<path style="fill:#a0b8d3; stroke:none;" d="M54 12L55 15L56 15L56 12L54 12z"/>
<path style="fill:#ffffff; stroke:none;" d="M104 12C103.618 16.5392 104.352 20.5783 100 23L100 17L99 17L99 24L106 24L104 12z"/>
<path style="fill:#9dabcb; stroke:none;" d="M31 13L31 23L32 23L31 13z"/>
<path style="fill:#94a8ca; stroke:none;" d="M41 13L40 25C43.0447 22.3395 42.4777 16.5214 41 13z"/>
<path style="fill:#f9fcfe; stroke:none;" d="M54 13C52.2384 16.3274 51.4324 23.0212 56 24L57 16L54 13z"/>
<path style="fill:#a5b6d2; stroke:none;" d="M59.6667 13.3333L60.3333 13.6667L59.6667 13.3333z"/>
<path style="fill:#b1c4db; stroke:none;" d="M94.6667 13.3333L95.3333 13.6667L94.6667 13.3333z"/>
<path style="fill:#92a9cd; stroke:none;" d="M103.333 13.6667L103.667 14.3333L103.333 13.6667z"/>
<path style="fill:#647bac; stroke:none;" d="M45 14L45 15L48 15L45 14z"/>
<path style="fill:#5a73a8; stroke:none;" d="M66.6667 14.3333L67.3333 14.6667L66.6667 14.3333z"/>
<path style="fill:#51619d; stroke:none;" d="M100 14L100 15L103 15L100 14z"/>
<path style="fill:#697eaf; stroke:none;" d="M110.667 14.3333L111.333 14.6667L110.667 14.3333z"/>
<path style="fill:#000d5e; stroke:none;" d="M21 15L25 19L21 15z"/>
<path style="fill:#ffffff; stroke:none;" d="M44 18L48 16L44 24L51 24C50.2801 21.3229 45.9249 9.01725 44 18z"/>
<path style="fill:#738db9; stroke:none;" d="M49 15L50 16L49 15z"/>
<path style="fill:#6280b1; stroke:none;" d="M59 15L59 16L61 23L62 23C63.0668 19.3708 63.0023 16.1708 59 15z"/>
<path style="fill:#ffffff; stroke:none;" d="M65.2986 16.0864C61.342 18.407 64.1438 26.6342 68.4012 23.7623C71.5042 21.6692 69.6835 13.5147 65.2986 16.0864M72 15L72 24C75.7158 23.2038 75 20.3627 75 17L78 17L77 24C85.0029 22.2851 77.6376 15 72 15z"/>
<path style="fill:#455193; stroke:none;" d="M79 15L80 23L81 23L79 15z"/>
<path style="fill:#b5c3da; stroke:none;" d="M81 17L84 16L81 17z"/>
<path style="fill:#5e73a8; stroke:none;" d="M84 15L85 19L86 19L86 15L84 15z"/>
<path style="fill:#c6cee1; stroke:none;" d="M86 15L86 19L87 19L87 16L88 16L88 18C89.1178 15.8603 88.2508 15.4732 86 15z"/>
<path style="fill:#606ca3; stroke:none;" d="M89 15L89 18L91 18L91 15L89 15z"/>
<path style="fill:#e4eef6; stroke:none;" d="M91 15L91 18L93 15L91 15z"/>
<path style="fill:#6a91bb; stroke:none;" d="M94 15L94 16L96 23L97 23L97 15L94 15z"/>
<path style="fill:#ced8e7; stroke:none;" d="M99 15L100 23L101 23L104 16L99 15z"/>
<path style="fill:#f2f6fa; stroke:none;" d="M114 24L114 23L110 20L115 20C111.912 9.83155 102.742 23.1229 114 24z"/>
<path style="fill:#5674a8; stroke:none;" d="M5 16L5 21L6 21L5 16z"/>
<path style="fill:#96a6c8; stroke:none;" d="M16 17L16 18L23 19L23 18L19 16L16 17z"/>
<path style="fill:#7e9ec4; stroke:none;" d="M33 16L33 23L34 23L35 16L33 16z"/>
<path style="fill:#718db8; stroke:none;" d="M43 16L45 19L43 16z"/>
<path style="fill:#a3b1ce; stroke:none;" d="M46.6667 16.3333L47.3333 16.6667L46.6667 16.3333z"/>
<path style="fill:#475b99; stroke:none;" d="M52 16L52 23L53 23L52 16z"/>
<path style="fill:#738cb8; stroke:none;" d="M58 16L58 23L59 23L58 16z"/>
<path style="fill:#fdfefe; stroke:none;" d="M59 16L58 24L62 24L61 16L59 16z"/>
<path style="fill:#afbfd7; stroke:none;" d="M66.6667 16.3333L67.3333 16.6667L66.6667 16.3333z"/>
<path style="fill:#f4f7fa; stroke:none;" d="M82 16L86 24L86 21L87 21L90 24L91 19L88 16L87 16L87 19L82 16z"/>
<path style="fill:#ffffff; stroke:none;" d="M94 16L93 24L97 24L96 16L94 16z"/>
<path style="fill:#7a80ae; stroke:none;" d="M110.667 16.3333L111.333 16.6667L110.667 16.3333z"/>
<path style="fill:#5c73a8; stroke:none;" d="M7 17L7 20L8 20L7 17z"/>
<path style="fill:#0f126a; stroke:none;" d="M45 19L48 17L45 19z"/>
<path style="fill:#8f9fc3; stroke:none;" d="M50 17L50 23L51 23L50 17z"/>
<path style="fill:#8fa8cb; stroke:none;" d="M55 17L56 24L57 24L55 17z"/>
<path style="fill:#91a8ca; stroke:none;" d="M65 17L65 22L66 22L65 17z"/>
<path style="fill:#13438a; stroke:none;" d="M66 17L66 23L68 23L68 17L66 17z"/>
<path style="fill:#a6bdd6; stroke:none;" d="M70 17L70 23L71 23L70 17z"/>
<path style="fill:#6985b4; stroke:none;" d="M72 17L72 23L73 23L72 17z"/>
<path style="fill:#38619d; stroke:none;" d="M75 17L75 23L76 23L77 17L75 17z"/>
<path style="fill:#abbad5; stroke:none;" d="M77 17L77 23L78 23L77 17z"/>
<path style="fill:#c1d0e3; stroke:none;" d="M98 17L98 23L99 23L98 17z"/>
<path style="fill:#012275; stroke:none;" d="M101 17L101 23L103 23L103 17L101 17z"/>
<path style="fill:#a0b6d3; stroke:none;" d="M103 17L103 22L104 22L103 17z"/>
<path style="fill:#00075a; stroke:none;" d="M110.667 17.3333L111.333 17.6667L110.667 17.3333z"/>
<path style="fill:#000c68; stroke:none;" d="M76 18L76 23L77 23L76 18z"/>
<path style="fill:#a6bdd7; stroke:none;" d="M89 18L89 19L92 20L89 18z"/>
<path style="fill:#425998; stroke:none;" d="M97 18L97 25L98 25L97 18z"/>
<path style="fill:#92a6c9; stroke:none;" d="M107 18L107 22L108 22L107 18z"/>
<path style="fill:#8e8fb1; stroke:none;" d="M110.667 18.3333L111.333 18.6667L110.667 18.3333z"/>
<path style="fill:#002979; stroke:none;" d="M13 23L20 19C16.3084 19.1204 14.2226 19.3133 13 23z"/>
<path style="fill:#ffffff; stroke:none;" d="M17 25L18 26L24 24L24 19C20.0012 19.6462 18.4876 21.2828 17 25z"/>
<path style="fill:#658db8; stroke:none;" d="M24 19L21 25C25.0899 25.0669 25.7098 22.8132 26 19L24 19z"/>
<path style="fill:#5977aa; stroke:none;" d="M82.3333 19.6667L82.6667 20.3333L82.3333 19.6667z"/>
<path style="fill:#7083b2; stroke:none;" d="M11 20L12 21L11 20z"/>
<path style="fill:#8ca6c7; stroke:none;" d="M37 20L38 21L37 20z"/>
<path style="fill:#061c6a; stroke:none;" d="M47 20L46 22L48 22L47 20z"/>
<path style="fill:#a4bbd5; stroke:none;" d="M90 20L90 23L91 23L90 20z"/>
<path style="fill:#7999c0; stroke:none;" d="M18 21L19 22L18 21z"/>
<path style="fill:#b6bad5; stroke:none;" d="M43 21L43 24L44 24L43 21z"/>
<path style="fill:#5c78ad; stroke:none;" d="M86.6667 21.3333L87.3333 21.6667L86.6667 21.3333z"/>
<path style="fill:#306cad; stroke:none;" d="M12 22L11 28L21 28L21 27L12 27L17 24L12 22z"/>
<path style="fill:#0e428b; stroke:none;" d="M21 22L22 23L21 22z"/>
<path style="fill:#8990b8; stroke:none;" d="M46.6667 22.3333L47.3333 22.6667L46.6667 22.3333z"/>
<path style="fill:#5173a7; stroke:none;" d="M83.3333 22.6667L83.6667 23.3333L83.3333 22.6667z"/>
<path style="fill:#5582b3; stroke:none;" d="M113 22L115 24L115 22L113 22z"/>
<path style="fill:#5e9bca; stroke:none;" d="M30 23C31.7685 25.0339 33.2315 25.0339 35 23L30 23z"/>
<path style="fill:#5f9bca; stroke:none;" d="M72 24L72 25L81 23L72 24z"/>
<path style="fill:#96c9e6; stroke:none;" d="M106 23L100 24L100 25L106 23z"/>
<path style="fill:#d7dfec; stroke:none;" d="M12 27L18 25C14.9412 23.8901 12.7648 23.431 12 27z"/>
<path style="fill:#6faad3; stroke:none;" d="M44 24L44 25L51 25L44 24z"/>
<path style="fill:#78b1d6; stroke:none;" d="M54.6667 24.3333L55.3333 24.6667L54.6667 24.3333z"/>
<path style="fill:#64a0ce; stroke:none;" d="M58 24L58 25L62 25L58 24z"/>
<path style="fill:#599ac9; stroke:none;" d="M88.6667 24.3333L89.3333 24.6667L88.6667 24.3333z"/>
<path style="fill:#619dcc; stroke:none;" d="M93 24L93 25L97 25L93 24z"/>
<path style="fill:#82badd; stroke:none;" d="M109 24L109 25L113 25L109 24z"/>
<path style="fill:#a3a7bd; stroke:none;" d="M9 25C11.0696 30.1485 16.1789 29 21 29L21 28L9 25z"/>
<path style="fill:#253d84; stroke:none;" d="M20 25L20 27L22 27L22 25L20 25z"/>
<path style="fill:#851f45; stroke:none;" d="M1 26L1 27L9 27L1 26z"/>
<path style="fill:#98a9cb; stroke:none;" d="M18.6667 26.3333L19.3333 26.6667L18.6667 26.3333z"/>
<path style="fill:#ffa494; stroke:none;" d="M21 29L25 27L21 29z"/>
<path style="fill:#770f3b; stroke:none;" d="M25 26L25 27L120 27L91 26L25 26z"/>
<path style="fill:#e8303c; stroke:none;" d="M1 27L1 32L2 32L1 27z"/>
<path style="fill:#e3000f; stroke:none;" d="M2 27L2 33L119 33L119 27L28 27.0193L16.0039 29.8843L2 27z"/>
<path style="fill:#e93743; stroke:none;" d="M119 27L119 32L120 32L119 27z"/>
<path style="fill:#ff584a; stroke:none;" d="M11 29L11 30L21 30L11 29z"/>
<path style="fill:#e61c29; stroke:none;" d="M3 33L3 34L117 34L82 33L3 33z"/>
<path style="fill:#f8bfc3; stroke:none;" d="M4 34L4 35L117 35L83 34L4 34z"/>
<path style="fill:#afc4da; stroke:none;" d="M32 38L32 39L36 39L32 38z"/>
<path style="fill:#b1c5da; stroke:none;" d="M44 40L47 39L44 40z"/>
<path style="fill:#7ea0c3; stroke:none;" d="M58 38L58 40L60 40L60 38L58 38z"/>
<path style="fill:#a5bdd5; stroke:none;" d="M79 38L79 39L82 39L79 38z"/>
<path style="fill:#86a6c7; stroke:none;" d="M96 38L96 40L98 40L98 38L96 38z"/>
<path style="fill:#9fb8d3; stroke:none;" d="M31 39L31 47L32 47L31 39z"/>
<path style="fill:#1f5a97; stroke:none;" d="M32 39L32 48C38.9347 47.4453 38.4202 40.0707 32 39z"/>
<path style="fill:#86a6c7; stroke:none;" d="M36 39L37 40L36 39z"/>
<path style="fill:#6b92bb; stroke:none;" d="M45.6667 39.3333L46.3333 39.6667L45.6667 39.3333z"/>
<path style="fill:#5b86b3; stroke:none;" d="M48 39L48 48L50 48L50 39L48 39z"/>
<path style="fill:#c9d7e6; stroke:none;" d="M50 39L50 48L51 48L50 39z"/>
<path style="fill:#5884b2; stroke:none;" d="M55 39C51.4157 43.1627 50.0866 47.4486 57 48L57 39L55 39z"/>
<path style="fill:#245e9a; stroke:none;" d="M77 40L81 47L78 46C82.0143 52.9212 81.642 40.1744 82 40L77 40z"/>
<path style="fill:#b7cade; stroke:none;" d="M82 39L79 42L82 39z"/>
<path style="fill:#96b2ce; stroke:none;" d="M105 39L105 47L106 47L106 40L107 40L107 46L108 46L108 42L109 42L110 44L111 41L105 39z"/>
<path style="fill:#bfd0e1; stroke:none;" d="M33 40L33 42L36 42L36 40L33 40z"/>
<path style="fill:#7398be; stroke:none;" d="M37.3333 40.6667L37.6667 41.3333L37.3333 40.6667z"/>
<path style="fill:#27609b; stroke:none;" d="M106 40C106 43.5105 105.013 47.1456 109 48L106 40z"/>
<path style="fill:#104f90; stroke:none;" d="M39 41L41 48L39 41z"/>
<path style="fill:#cfdce9; stroke:none;" d="M40 41L42 46L40 41z"/>
<path style="fill:#4c7bac; stroke:none;" d="M42 41L43 47L40 46L40 47L44 48L44 41L42 41z"/>
<path style="fill:#9ab5d0; stroke:none;" d="M45.6667 41.3333L46.3333 41.6667L45.6667 41.3333z"/>
<path style="fill:#b1c5db; stroke:none;" d="M58.6667 41.3333L59.3333 41.6667L58.6667 41.3333z"/>
<path style="fill:#7a9dc1; stroke:none;" d="M61 41L63 48L62 42L66 42L61 41z"/>
<path style="fill:#366ba2; stroke:none;" d="M71 48L71 49L68 51C73.4469 50.0542 72.9864 45.7257 73 41C68.514 41.7487 66.7839 45.2577 71 48z"/>
<path style="fill:#3e71a6; stroke:none;" d="M85.5494 42.1752C83.3655 43.5794 84.8691 48.4847 87.4506 46.8248C89.6345 45.4206 88.1309 40.5153 85.5494 42.1752z"/>
<path style="fill:#1c5896; stroke:none;" d="M92 41C91.1172 44.3041 91.0431 46.0799 94 48L94 41L92 41z"/>
<path style="fill:#8dabca; stroke:none;" d="M94 41L93 43L95 43L94 41z"/>
<path style="fill:#9cb6d1; stroke:none;" d="M96 41L96 48C98.4034 45.9003 98.4034 43.0997 96 41z"/>
<path style="fill:#5d88b4; stroke:none;" d="M99 47L100 47L100 43L101 43L104 45L103 41L99 47z"/>
<path style="fill:#86a6c7; stroke:none;" d="M113 41L114 44L115 44L115 41L113 41z"/>
<path style="fill:#f6f8fb; stroke:none;" d="M37.3333 42.6667L37.6667 43.3333L37.3333 42.6667z"/>
<path style="fill:#a1bad4; stroke:none;" d="M38 42L37 47L38 42z"/>
<path style="fill:#5682b1; stroke:none;" d="M45 42L45 48L47 48L47 42L45 42z"/>
<path style="fill:#215b98; stroke:none;" d="M58 42L58 47L59 47L58 42z"/>
<path style="fill:#7096bd; stroke:none;" d="M59 42L58 48L59 42z"/>
<path style="fill:#3b6ea4; stroke:none;" d="M62 42L62 47L63 47L64 42L62 42z"/>
<path style="fill:#225c99; stroke:none;" d="M65 42L65 47L66 47L65 42z"/>
<path style="fill:#a3bbd4; stroke:none;" d="M66 42L65 48C67.5968 46.1481 67.7981 44.5957 66 42z"/>
<path style="fill:#6f95bc; stroke:none;" d="M90 42L90 47L91 47L90 42z"/>
<path style="fill:#205b98; stroke:none;" d="M96 42L96 47L97 47L96 42z"/>
<path style="fill:#527faf; stroke:none;" d="M110 42L110 46L114 45L114 44L110 42z"/>
<path style="fill:#004389; stroke:none;" d="M113.333 42.6667L113.667 43.3333L113.333 42.6667z"/>
<path style="fill:#f0f4f8; stroke:none;" d="M53 43L53 46L55 46L55 43L53 43z"/>
<path style="fill:#d4dfeb; stroke:none;" d="M69 43L69 46L71 46L71 43L69 43z"/>
<path style="fill:#ffffff; stroke:none;" d="M85 43L85 46L87 46L87 43L85 43z"/>
<path style="fill:#3369a1; stroke:none;" d="M100 43L100 48L104 46L101 47L100 43z"/>
<path style="fill:#aec3da; stroke:none;" d="M33 44L34 47L35 47L36 44L33 44z"/>
<path style="fill:#03458a; stroke:none;" d="M42.3333 45.6667L42.6667 46.3333L42.3333 45.6667z"/>
<path style="fill:#adc3d9; stroke:none;" d="M77 45L77 48L78 48L79 45L77 45z"/>
<path style="fill:#0d4d8f; stroke:none;" d="M111 45L111 47L113 47L113 45L111 45z"/>
<path style="fill:#84a4c6; stroke:none;" d="M79.6667 46.3333L80.3333 46.6667L79.6667 46.3333z"/>
<path style="fill:#83a4c6; stroke:none;" d="M93 46L95 48L95 46L93 46z"/>
<path style="fill:#3f71a6; stroke:none;" d="M111 47L110 51L113 47L111 47z"/>
<path style="fill:#80a1c4; stroke:none;" d="M109.333 49.6667L109.667 50.3333L109.333 49.6667z"/>
</svg>
